<?xml version="1.0" standalone="no"?>
<!DOCTYPE svg PUBLIC "-//W3C//DTD SVG 20010904//EN"
 "http://www.w3.org/TR/2001/REC-SVG-20010904/DTD/svg10.dtd">
<svg version="1.0" xmlns="http://www.w3.org/2000/svg"
 width="120.000000pt" height="120.000000pt" viewBox="0 0 120.000000 120.000000"
 preserveAspectRatio="xMidYMid meet">
<metadata>
Created by potrace 1.11, written by Peter Selinger 2001-2013
</metadata>
<g transform="translate(0.000000,120.000000) scale(0.100000,-0.100000)"
fill="#000000" stroke="none">
<path d="M519 1076 c-111 -29 -202 -135 -216 -254 -3 -28 -8 -51 -12 -50 -31
3 -41 -4 -40 -29 2 -24 2 -25 6 -5 6 31 41 30 41 -2 -1 -19 -8 -26 -42 -36
-22 -6 -51 -18 -63 -26 -26 -17 -31 -11 -29 40 1 29 7 41 21 47 14 5 6 7 -25
7 -25 0 -37 -2 -27 -5 15 -4 17 -14 15 -61 -2 -42 -7 -57 -18 -57 -8 -1 -14
-7 -12 -13 1 -7 -9 -27 -22 -45 -118 -157 -42 -394 147 -458 70 -24 186 -19
252 10 27 12 52 25 55 29 3 4 15 15 27 25 21 19 22 18 62 -13 59 -48 130 -69
220 -65 44 1 93 10 116 20 132 57 206 193 180 331 -10 55 -60 154 -77 154 -10
0 -7 134 4 141 5 4 3 9 -5 12 -7 3 -20 1 -28 -4 -10 -6 -10 -9 -1 -9 8 0 12
-17 12 -52 l0 -53 -33 58 c-19 35 -38 57 -49 57 -14 0 -13 -4 6 -24 27 -26 61
-86 49 -86 -20 1 -43 30 -43 53 0 14 -5 29 -12 33 -8 5 -9 2 -5 -9 11 -29 -2
-48 -24 -36 -17 9 -19 17 -13 58 4 33 1 67 -11 107 -26 92 -70 144 -160 190
-57 31 -170 39 -246 20z"/>
</g>
</svg>
