<svg width="216" height="133" viewBox="0 0 216 133" fill="none" xmlns="http://www.w3.org/2000/svg">
<g filter="url(#filter0_d)">
<rect x="4" width="204" height="125" rx="27" fill="#F04B37"/>
</g>
<path d="M70.976 35.2L67.616 52H44.168L47.528 35.2H53.096L50.672 47.608H54.056L56.48 35.2H62.048L59.624 47.608H62.984L65.408 35.2H70.976ZM82.8941 45.232C83.9341 45.776 84.4541 46.664 84.4541 47.896C84.4541 49.176 83.9181 50.184 82.8461 50.92C81.7741 51.64 80.2621 52 78.3101 52H70.3661L73.0061 38.872H80.1821C81.7821 38.872 83.0221 39.16 83.9021 39.736C84.7821 40.296 85.2221 41.096 85.2221 42.136C85.2221 42.824 85.0221 43.44 84.6221 43.984C84.2221 44.512 83.6461 44.928 82.8941 45.232ZM76.7021 44.056H78.8381C79.2541 44.056 79.5821 43.96 79.8221 43.768C80.0621 43.56 80.1821 43.296 80.1821 42.976C80.1821 42.704 80.0941 42.496 79.9181 42.352C79.7421 42.208 79.5021 42.136 79.1981 42.136H77.0861L76.7021 44.056ZM78.3821 48.64C78.7981 48.64 79.1261 48.544 79.3661 48.352C79.6061 48.144 79.7261 47.88 79.7261 47.56C79.7261 47.288 79.6381 47.08 79.4621 46.936C79.2861 46.792 79.0461 46.72 78.7421 46.72H76.1741L75.7901 48.64H78.3821ZM88.0998 38.872H93.4998L92.2278 44.8L97.9638 38.872H103.028L100.388 52H94.9878L96.2598 46.048L90.5478 52H85.4598L88.0998 38.872ZM118.329 47.752H120.081L118.713 54.592H113.697L114.201 52H106.953L106.449 54.592H101.433L102.801 47.752H102.993C104.433 47.752 105.497 46.264 106.185 43.288L107.241 38.872H120.105L118.329 47.752ZM110.793 44.632C110.601 45.48 110.425 46.136 110.265 46.6C110.105 47.048 109.881 47.432 109.593 47.752H112.929L113.841 43.096H111.153L110.913 44.128L110.793 44.632ZM133.02 45.472L136.188 52H129.9L128.34 47.632H127.116L126.228 52H120.804L123.444 38.872H128.868L127.932 43.48H129.036L132.852 38.872H138.708L133.02 45.472ZM154.037 38.872L151.421 52H146.309L146.549 50.8C145.557 51.76 144.373 52.24 142.997 52.24C142.101 52.24 141.237 52 140.405 51.52C139.573 51.04 138.893 50.344 138.365 49.432C137.853 48.504 137.597 47.416 137.597 46.168C137.597 44.76 137.909 43.48 138.533 42.328C139.173 41.176 140.029 40.272 141.101 39.616C142.173 38.96 143.333 38.632 144.581 38.632C146.341 38.632 147.589 39.176 148.325 40.264L148.613 38.872H154.037ZM143.093 45.904C143.093 46.528 143.261 47.032 143.597 47.416C143.949 47.784 144.429 47.968 145.037 47.968C145.741 47.968 146.309 47.696 146.741 47.152C147.189 46.608 147.413 45.88 147.413 44.968C147.413 44.344 147.237 43.848 146.885 43.48C146.549 43.096 146.077 42.904 145.469 42.904C144.765 42.904 144.189 43.176 143.741 43.72C143.309 44.264 143.093 44.992 143.093 45.904ZM59.36 76.752H61.112L59.744 83.592H54.728L55.232 81H47.984L47.48 83.592H42.464L43.832 76.752H44.024C45.464 76.752 46.528 75.264 47.216 72.288L48.272 67.872H61.136L59.36 76.752ZM51.824 73.632C51.632 74.48 51.456 75.136 51.296 75.6C51.136 76.048 50.912 76.432 50.624 76.752H53.96L54.872 72.096H52.184L51.944 73.128L51.824 73.632ZM69.4188 81.24C67.9788 81.24 66.7228 80.992 65.6508 80.496C64.5788 79.984 63.7468 79.272 63.1548 78.36C62.5788 77.448 62.2908 76.384 62.2908 75.168C62.2908 73.744 62.6428 72.464 63.3468 71.328C64.0508 70.176 65.0188 69.272 66.2508 68.616C67.4988 67.96 68.9068 67.632 70.4748 67.632C71.9148 67.632 73.1708 67.888 74.2428 68.4C75.3148 68.896 76.1388 69.6 76.7148 70.512C77.3068 71.424 77.6028 72.488 77.6028 73.704C77.6028 75.128 77.2508 76.416 76.5468 77.568C75.8428 78.704 74.8668 79.6 73.6188 80.256C72.3868 80.912 70.9868 81.24 69.4188 81.24ZM69.7308 76.968C70.4348 76.968 71.0028 76.696 71.4348 76.152C71.8828 75.608 72.1068 74.88 72.1068 73.968C72.1068 73.344 71.9308 72.848 71.5788 72.48C71.2428 72.096 70.7708 71.904 70.1628 71.904C69.4588 71.904 68.8828 72.176 68.4348 72.72C68.0028 73.264 67.7868 73.992 67.7868 74.904C67.7868 75.528 67.9548 76.032 68.2908 76.416C68.6428 76.784 69.1228 76.968 69.7308 76.968ZM85.5678 81.24C84.1438 81.24 82.8878 80.992 81.7998 80.496C80.7278 79.984 79.8958 79.272 79.3038 78.36C78.7118 77.448 78.4158 76.384 78.4158 75.168C78.4158 73.744 78.7678 72.464 79.4718 71.328C80.1758 70.176 81.1598 69.272 82.4238 68.616C83.6878 67.96 85.1118 67.632 86.6958 67.632C88.2478 67.632 89.5998 67.976 90.7518 68.664C91.9198 69.352 92.7358 70.288 93.1998 71.472L88.5918 73.584C88.1758 72.464 87.4558 71.904 86.4318 71.904C85.6958 71.904 85.0878 72.176 84.6078 72.72C84.1438 73.264 83.9118 73.968 83.9118 74.832C83.9118 75.472 84.0878 75.992 84.4398 76.392C84.8078 76.776 85.3198 76.968 85.9758 76.968C86.5198 76.968 86.9838 76.84 87.3678 76.584C87.7678 76.312 88.1198 75.88 88.4238 75.288L92.3838 77.592C91.7278 78.76 90.8078 79.664 89.6238 80.304C88.4558 80.928 87.1038 81.24 85.5678 81.24ZM107.355 72.096H103.299L101.571 81H96.1713L97.8993 72.096H93.9393L94.8033 67.872H108.219L107.355 72.096ZM123.639 67.872L121.023 81H115.911L116.151 79.8C115.159 80.76 113.975 81.24 112.599 81.24C111.703 81.24 110.839 81 110.007 80.52C109.175 80.04 108.495 79.344 107.967 78.432C107.455 77.504 107.199 76.416 107.199 75.168C107.199 73.76 107.511 72.48 108.135 71.328C108.775 70.176 109.631 69.272 110.703 68.616C111.775 67.96 112.935 67.632 114.183 67.632C115.943 67.632 117.191 68.176 117.927 69.264L118.215 67.872H123.639ZM112.695 74.904C112.695 75.528 112.863 76.032 113.199 76.416C113.551 76.784 114.031 76.968 114.639 76.968C115.343 76.968 115.911 76.696 116.343 76.152C116.791 75.608 117.015 74.88 117.015 73.968C117.015 73.344 116.839 72.848 116.487 72.48C116.151 72.096 115.679 71.904 115.071 71.904C114.367 71.904 113.791 72.176 113.343 72.72C112.911 73.264 112.695 73.992 112.695 74.904ZM136.097 74.232C137.137 74.776 137.657 75.664 137.657 76.896C137.657 78.176 137.121 79.184 136.049 79.92C134.977 80.64 133.465 81 131.513 81H123.569L126.209 67.872H133.385C134.985 67.872 136.225 68.16 137.105 68.736C137.985 69.296 138.425 70.096 138.425 71.136C138.425 71.824 138.225 72.44 137.825 72.984C137.425 73.512 136.849 73.928 136.097 74.232ZM129.905 73.056H132.041C132.457 73.056 132.785 72.96 133.025 72.768C133.265 72.56 133.385 72.296 133.385 71.976C133.385 71.704 133.297 71.496 133.121 71.352C132.945 71.208 132.705 71.136 132.401 71.136H130.289L129.905 73.056ZM131.585 77.64C132.001 77.64 132.329 77.544 132.569 77.352C132.809 77.144 132.929 76.88 132.929 76.56C132.929 76.288 132.841 76.08 132.665 75.936C132.489 75.792 132.249 75.72 131.945 75.72H129.377L128.993 77.64H131.585ZM150.879 74.472L154.047 81H147.759L146.199 76.632H144.975L144.087 81H138.663L141.303 67.872H146.727L145.791 72.48H146.895L150.711 67.872H156.567L150.879 74.472ZM171.897 67.872L169.281 81H164.169L164.409 79.8C163.417 80.76 162.233 81.24 160.857 81.24C159.961 81.24 159.097 81 158.265 80.52C157.433 80.04 156.753 79.344 156.225 78.432C155.713 77.504 155.457 76.416 155.457 75.168C155.457 73.76 155.769 72.48 156.393 71.328C157.033 70.176 157.889 69.272 158.961 68.616C160.033 67.96 161.193 67.632 162.441 67.632C164.201 67.632 165.449 68.176 166.185 69.264L166.473 67.872H171.897ZM160.953 74.904C160.953 75.528 161.121 76.032 161.457 76.416C161.809 76.784 162.289 76.968 162.897 76.968C163.601 76.968 164.169 76.696 164.601 76.152C165.049 75.608 165.273 74.88 165.273 73.968C165.273 73.344 165.097 72.848 164.745 72.48C164.409 72.096 163.937 71.904 163.329 71.904C162.625 71.904 162.049 72.176 161.601 72.72C161.169 73.264 160.953 73.992 160.953 74.904Z" fill="white"/>
<defs>
<filter id="filter0_d" x="0" y="0" width="212" height="133" filterUnits="userSpaceOnUse" color-interpolation-filters="sRGB">
<feFlood flood-opacity="0" result="BackgroundImageFix"/>
<feColorMatrix in="SourceAlpha" type="matrix" values="0 0 0 0 0 0 0 0 0 0 0 0 0 0 0 0 0 0 127 0"/>
<feOffset dy="4"/>
<feGaussianBlur stdDeviation="2"/>
<feColorMatrix type="matrix" values="0 0 0 0 0 0 0 0 0 0 0 0 0 0 0 0 0 0 0.25 0"/>
<feBlend mode="normal" in2="BackgroundImageFix" result="effect1_dropShadow"/>
<feBlend mode="normal" in="SourceGraphic" in2="effect1_dropShadow" result="shape"/>
</filter>
</defs>
</svg>
