<svg width="212" height="142" viewBox="0 0 212 142" fill="none" xmlns="http://www.w3.org/2000/svg">
<g filter="url(#filter0_d)">
<rect x="4" width="204" height="125" rx="27" fill="#C8C8C8"/>
</g>
<path d="M50.088 25.2L46.728 42H41.064L42.312 35.808H37.08L35.832 42H30.168L33.528 25.2H39.192L37.992 31.152H43.224L44.424 25.2H50.088ZM66.4669 28.872L63.8509 42H58.7389L58.9789 40.8C57.9869 41.76 56.8029 42.24 55.4269 42.24C54.5309 42.24 53.6669 42 52.8349 41.52C52.0029 41.04 51.3229 40.344 50.7949 39.432C50.2829 38.504 50.0269 37.416 50.0269 36.168C50.0269 34.76 50.3389 33.48 50.9629 32.328C51.6029 31.176 52.4589 30.272 53.5309 29.616C54.6029 28.96 55.7629 28.632 57.0109 28.632C58.7709 28.632 60.0189 29.176 60.7549 30.264L61.0429 28.872H66.4669ZM55.5229 35.904C55.5229 36.528 55.6909 37.032 56.0269 37.416C56.3789 37.784 56.8589 37.968 57.4669 37.968C58.1709 37.968 58.7389 37.696 59.1709 37.152C59.6189 36.608 59.8429 35.88 59.8429 34.968C59.8429 34.344 59.6669 33.848 59.3149 33.48C58.9789 33.096 58.5069 32.904 57.8989 32.904C57.1949 32.904 56.6189 33.176 56.1709 33.72C55.7389 34.264 55.5229 34.992 55.5229 35.904ZM90.6133 28.872L87.9733 42H66.3973L69.0373 28.872H74.4373L72.7093 37.752H75.4213L77.1493 28.872H82.5493L80.8213 37.752H83.5093L85.2373 28.872H90.6133ZM93.1305 28.872H98.5305L95.9145 42H90.5145L93.1305 28.872ZM96.4185 27.816C95.4905 27.816 94.7465 27.576 94.1865 27.096C93.6265 26.6 93.3465 25.984 93.3465 25.248C93.3465 24.4 93.6665 23.696 94.3065 23.136C94.9465 22.576 95.7785 22.296 96.8025 22.296C97.7305 22.296 98.4745 22.528 99.0345 22.992C99.5945 23.44 99.8745 24.032 99.8745 24.768C99.8745 25.68 99.5545 26.416 98.9145 26.976C98.2905 27.536 97.4585 27.816 96.4185 27.816ZM120.464 37.752H122.216L120.848 44.592H115.832L116.336 42H105.632L108.272 28.872H113.672L111.896 37.752H115.064L116.84 28.872H122.24L120.464 37.752ZM125.545 28.872H130.945L128.329 42H122.929L125.545 28.872ZM128.833 27.816C127.905 27.816 127.161 27.576 126.601 27.096C126.041 26.6 125.761 25.984 125.761 25.248C125.761 24.4 126.081 23.696 126.721 23.136C127.361 22.576 128.193 22.296 129.217 22.296C130.145 22.296 130.889 22.528 131.449 22.992C132.009 23.44 132.289 24.032 132.289 24.768C132.289 25.68 131.969 26.416 131.329 26.976C130.705 27.536 129.873 27.816 128.833 27.816ZM133.49 28.872H138.89L137.954 33.48H141.65L142.586 28.872H147.986L145.346 42H139.946L140.81 37.728H137.114L136.25 42H130.85L133.49 28.872ZM150.53 28.872H155.93L154.658 34.8L160.394 28.872H165.458L162.818 42H157.418L158.69 36.048L152.978 42H147.889L150.53 28.872ZM37.56 71.24C36.136 71.24 34.88 70.992 33.792 70.496C32.72 69.984 31.888 69.272 31.296 68.36C30.704 67.448 30.408 66.384 30.408 65.168C30.408 63.744 30.76 62.464 31.464 61.328C32.168 60.176 33.152 59.272 34.416 58.616C35.68 57.96 37.104 57.632 38.688 57.632C40.24 57.632 41.592 57.976 42.744 58.664C43.912 59.352 44.728 60.288 45.192 61.472L40.584 63.584C40.168 62.464 39.448 61.904 38.424 61.904C37.688 61.904 37.08 62.176 36.6 62.72C36.136 63.264 35.904 63.968 35.904 64.832C35.904 65.472 36.08 65.992 36.432 66.392C36.8 66.776 37.312 66.968 37.968 66.968C38.512 66.968 38.976 66.84 39.36 66.584C39.76 66.312 40.112 65.88 40.416 65.288L44.376 67.592C43.72 68.76 42.8 69.664 41.616 70.304C40.448 70.928 39.096 71.24 37.56 71.24ZM61.7503 57.872L59.1103 71H53.7103L55.4383 62.096H52.1503L50.4223 71H45.0223L47.6623 57.872H61.7503ZM72.7269 57.632C73.6229 57.632 74.4869 57.872 75.3189 58.352C76.1509 58.832 76.8229 59.536 77.3349 60.464C77.8629 61.376 78.1269 62.456 78.1269 63.704C78.1269 65.112 77.8069 66.392 77.1669 67.544C76.5429 68.696 75.6949 69.6 74.6229 70.256C73.5509 70.912 72.3909 71.24 71.1429 71.24C69.3829 71.24 68.1349 70.696 67.3989 69.608L66.1749 75.656H60.7509L64.3029 57.872H69.4149L69.1749 59.072C70.1669 58.112 71.3509 57.632 72.7269 57.632ZM70.2549 66.968C70.9589 66.968 71.5269 66.696 71.9589 66.152C72.4069 65.608 72.6309 64.88 72.6309 63.968C72.6309 63.344 72.4549 62.848 72.1029 62.48C71.7669 62.096 71.2949 61.904 70.6869 61.904C69.9829 61.904 69.4069 62.176 68.9589 62.72C68.5269 63.264 68.3109 63.992 68.3109 64.904C68.3109 65.528 68.4789 66.032 68.8149 66.416C69.1669 66.784 69.6469 66.968 70.2549 66.968ZM95.5294 57.872L92.9134 71H87.8014L88.0414 69.8C87.0494 70.76 85.8654 71.24 84.4894 71.24C83.5934 71.24 82.7294 71 81.8974 70.52C81.0654 70.04 80.3854 69.344 79.8574 68.432C79.3454 67.504 79.0894 66.416 79.0894 65.168C79.0894 63.76 79.4014 62.48 80.0254 61.328C80.6654 60.176 81.5214 59.272 82.5934 58.616C83.6654 57.96 84.8254 57.632 86.0734 57.632C87.8334 57.632 89.0814 58.176 89.8174 59.264L90.1054 57.872H95.5294ZM84.5854 64.904C84.5854 65.528 84.7534 66.032 85.0894 66.416C85.4414 66.784 85.9214 66.968 86.5294 66.968C87.2334 66.968 87.8014 66.696 88.2334 66.152C88.6814 65.608 88.9054 64.88 88.9054 63.968C88.9054 63.344 88.7294 62.848 88.3774 62.48C88.0414 62.096 87.5694 61.904 86.9614 61.904C86.2574 61.904 85.6814 62.176 85.2334 62.72C84.8014 63.264 84.5854 63.992 84.5854 64.904ZM107.988 64.232C109.028 64.776 109.548 65.664 109.548 66.896C109.548 68.176 109.012 69.184 107.94 69.92C106.868 70.64 105.356 71 103.404 71H95.4598L98.0998 57.872H105.276C106.876 57.872 108.116 58.16 108.996 58.736C109.876 59.296 110.316 60.096 110.316 61.136C110.316 61.824 110.116 62.44 109.716 62.984C109.316 63.512 108.74 63.928 107.988 64.232ZM101.796 63.056H103.932C104.348 63.056 104.676 62.96 104.916 62.768C105.156 62.56 105.276 62.296 105.276 61.976C105.276 61.704 105.188 61.496 105.012 61.352C104.836 61.208 104.596 61.136 104.292 61.136H102.18L101.796 63.056ZM103.476 67.64C103.892 67.64 104.22 67.544 104.46 67.352C104.7 67.144 104.82 66.88 104.82 66.56C104.82 66.288 104.732 66.08 104.556 65.936C104.38 65.792 104.14 65.72 103.836 65.72H101.268L100.884 67.64H103.476ZM130.546 64.496L133.066 71H126.85L125.65 66.632H124.786L123.898 71H118.546L119.434 66.632H118.57L115.762 71H109.258L114.442 64.064L112.258 57.872H117.85L119.194 62.48H120.25L121.186 57.872H126.538L125.602 62.48H126.466L129.706 57.872H135.538L130.546 64.496ZM136.983 57.872H142.383L141.447 62.48H145.143L146.079 57.872H151.479L148.839 71H143.439L144.303 66.728H140.607L139.743 71H134.343L136.983 57.872ZM153.998 57.872H159.398L156.782 71H151.382L153.998 57.872ZM157.286 56.816C156.358 56.816 155.614 56.576 155.054 56.096C154.494 55.6 154.214 54.984 154.214 54.248C154.214 53.4 154.534 52.696 155.174 52.136C155.814 51.576 156.646 51.296 157.67 51.296C158.598 51.296 159.342 51.528 159.902 51.992C160.462 52.44 160.742 53.032 160.742 53.768C160.742 54.68 160.422 55.416 159.782 55.976C159.158 56.536 158.326 56.816 157.286 56.816ZM161.944 57.872H167.344L166.072 63.8L171.808 57.872H176.872L174.232 71H168.832L170.104 65.048L164.392 71H159.304L161.944 57.872ZM169.456 56.792C168 56.792 166.92 56.544 166.216 56.048C165.512 55.536 165.16 54.768 165.16 53.744C165.16 53.424 165.2 53.04 165.28 52.592H168.736C168.688 52.784 168.664 52.968 168.664 53.144C168.664 53.832 169.048 54.176 169.816 54.176C170.264 54.176 170.608 54.056 170.848 53.816C171.088 53.56 171.264 53.152 171.376 52.592H174.928C174.656 54.064 174.088 55.136 173.224 55.808C172.36 56.464 171.104 56.792 169.456 56.792ZM185.568 62.024H192.768L191.952 66.104H184.752L185.568 62.024ZM37.56 100.24C36.136 100.24 34.88 99.992 33.792 99.496C32.72 98.984 31.888 98.272 31.296 97.36C30.704 96.448 30.408 95.384 30.408 94.168C30.408 92.744 30.76 91.464 31.464 90.328C32.168 89.176 33.152 88.272 34.416 87.616C35.68 86.96 37.104 86.632 38.688 86.632C40.24 86.632 41.592 86.976 42.744 87.664C43.912 88.352 44.728 89.288 45.192 90.472L40.584 92.584C40.168 91.464 39.448 90.904 38.424 90.904C37.688 90.904 37.08 91.176 36.6 91.72C36.136 92.264 35.904 92.968 35.904 93.832C35.904 94.472 36.08 94.992 36.432 95.392C36.8 95.776 37.312 95.968 37.968 95.968C38.512 95.968 38.976 95.84 39.36 95.584C39.76 95.312 40.112 94.88 40.416 94.288L44.376 96.592C43.72 97.76 42.8 98.664 41.616 99.304C40.448 99.928 39.096 100.24 37.56 100.24ZM57.2383 93.472L60.4063 100H54.1183L52.5583 95.632H51.3343L50.4463 100H45.0223L47.6623 86.872H53.0863L52.1503 91.48H53.2543L57.0703 86.872H62.9263L57.2383 93.472ZM78.2559 86.872L75.6399 100H70.5279L70.7679 98.8C69.7759 99.76 68.5919 100.24 67.2159 100.24C66.3199 100.24 65.4559 100 64.6239 99.52C63.7919 99.04 63.1119 98.344 62.5839 97.432C62.0719 96.504 61.8159 95.416 61.8159 94.168C61.8159 92.76 62.1279 91.48 62.7519 90.328C63.3919 89.176 64.2479 88.272 65.3199 87.616C66.3919 86.96 67.5519 86.632 68.7999 86.632C70.5599 86.632 71.8079 87.176 72.5439 88.264L72.8319 86.872H78.2559ZM67.3119 93.904C67.3119 94.528 67.4799 95.032 67.8159 95.416C68.1679 95.784 68.6479 95.968 69.2559 95.968C69.9599 95.968 70.5279 95.696 70.9599 95.152C71.4079 94.608 71.6319 93.88 71.6319 92.968C71.6319 92.344 71.4559 91.848 71.1039 91.48C70.7679 91.096 70.2959 90.904 69.6879 90.904C68.9839 90.904 68.4079 91.176 67.9599 91.72C67.5279 92.264 67.3119 92.992 67.3119 93.904ZM89.2504 86.632C90.1464 86.632 91.0104 86.872 91.8424 87.352C92.6744 87.832 93.3464 88.536 93.8584 89.464C94.3864 90.376 94.6504 91.456 94.6504 92.704C94.6504 94.112 94.3304 95.392 93.6904 96.544C93.0664 97.696 92.2184 98.6 91.1464 99.256C90.0744 99.912 88.9144 100.24 87.6664 100.24C85.9064 100.24 84.6584 99.696 83.9224 98.608L82.6984 104.656H77.2744L80.8264 86.872H85.9384L85.6984 88.072C86.6904 87.112 87.8744 86.632 89.2504 86.632ZM86.7784 95.968C87.4824 95.968 88.0504 95.696 88.4824 95.152C88.9304 94.608 89.1544 93.88 89.1544 92.968C89.1544 92.344 88.9784 91.848 88.6264 91.48C88.2904 91.096 87.8184 90.904 87.2104 90.904C86.5064 90.904 85.9304 91.176 85.4824 91.72C85.0504 92.264 84.8344 92.992 84.8344 93.904C84.8344 94.528 85.0024 95.032 85.3384 95.416C85.6904 95.784 86.1704 95.968 86.7784 95.968ZM106.365 86.92C105.197 87.096 104.269 87.384 103.581 87.784C102.893 88.168 102.373 88.736 102.021 89.488C103.093 88.88 104.317 88.576 105.693 88.576C107.389 88.576 108.717 89.016 109.677 89.896C110.653 90.776 111.141 92 111.141 93.568C111.141 94.912 110.797 96.104 110.109 97.144C109.437 98.168 108.477 98.968 107.229 99.544C105.981 100.104 104.533 100.384 102.885 100.384C100.661 100.384 98.9488 99.824 97.7488 98.704C96.5488 97.584 95.9488 95.896 95.9488 93.64C95.9488 91.816 96.3168 90.128 97.0528 88.576C97.8048 87.024 98.8688 85.736 100.245 84.712C101.637 83.672 103.261 83 105.117 82.696L112.005 81.568L111.885 86.08L106.365 86.92ZM105.237 94.096C105.237 93.52 105.085 93.088 104.781 92.8C104.477 92.496 104.061 92.344 103.533 92.344C102.845 92.344 102.301 92.56 101.901 92.992C101.501 93.424 101.301 93.968 101.301 94.624C101.301 95.184 101.461 95.616 101.781 95.92C102.101 96.224 102.533 96.376 103.077 96.376C103.749 96.376 104.277 96.16 104.661 95.728C105.045 95.296 105.237 94.752 105.237 94.096Z" fill="white"/>
<defs>
<filter id="filter0_d" x="0" y="0" width="212" height="133" filterUnits="userSpaceOnUse" color-interpolation-filters="sRGB">
<feFlood flood-opacity="0" result="BackgroundImageFix"/>
<feColorMatrix in="SourceAlpha" type="matrix" values="0 0 0 0 0 0 0 0 0 0 0 0 0 0 0 0 0 0 127 0"/>
<feOffset dy="4"/>
<feGaussianBlur stdDeviation="2"/>
<feColorMatrix type="matrix" values="0 0 0 0 0 0 0 0 0 0 0 0 0 0 0 0 0 0 0.25 0"/>
<feBlend mode="normal" in2="BackgroundImageFix" result="effect1_dropShadow"/>
<feBlend mode="normal" in="SourceGraphic" in2="effect1_dropShadow" result="shape"/>
</filter>
</defs>
</svg>
