<svg width="227" height="133" viewBox="0 0 227 133" fill="none" xmlns="http://www.w3.org/2000/svg">
<g filter="url(#filter0_d)">
<rect x="4" width="204" height="125" rx="27" fill="#69A041"/>
</g>
<path d="M49.088 25.2L45.728 42H40.064L41.312 35.808H36.08L34.832 42H29.168L32.528 25.2H38.192L36.992 31.152H42.224L43.424 25.2H49.088ZM65.4669 28.872L62.8509 42H57.7389L57.9789 40.8C56.9869 41.76 55.8029 42.24 54.4269 42.24C53.5309 42.24 52.6669 42 51.8349 41.52C51.0029 41.04 50.3229 40.344 49.7949 39.432C49.2829 38.504 49.0269 37.416 49.0269 36.168C49.0269 34.76 49.3389 33.48 49.9629 32.328C50.6029 31.176 51.4589 30.272 52.5309 29.616C53.6029 28.96 54.7629 28.632 56.0109 28.632C57.7709 28.632 59.0189 29.176 59.7549 30.264L60.0429 28.872H65.4669ZM54.5229 35.904C54.5229 36.528 54.6909 37.032 55.0269 37.416C55.3789 37.784 55.8589 37.968 56.4669 37.968C57.1709 37.968 57.7389 37.696 58.1709 37.152C58.6189 36.608 58.8429 35.88 58.8429 34.968C58.8429 34.344 58.6669 33.848 58.3149 33.48C57.9789 33.096 57.5069 32.904 56.8989 32.904C56.1949 32.904 55.6189 33.176 55.1709 33.72C54.7389 34.264 54.5229 34.992 54.5229 35.904ZM68.0373 28.872H73.4373L72.1653 34.8L77.9013 28.872H82.9653L80.3253 42H74.9253L76.1973 36.048L70.4853 42H65.3973L68.0373 28.872ZM75.5493 27.792C74.0933 27.792 73.0133 27.544 72.3093 27.048C71.6053 26.536 71.2533 25.768 71.2533 24.744C71.2533 24.424 71.2933 24.04 71.3733 23.592H74.8293C74.7813 23.784 74.7573 23.968 74.7573 24.144C74.7573 24.832 75.1413 25.176 75.9093 25.176C76.3573 25.176 76.7013 25.056 76.9413 24.816C77.1813 24.56 77.3573 24.152 77.4693 23.592H81.0213C80.7493 25.064 80.1813 26.136 79.3173 26.808C78.4533 27.464 77.1973 27.792 75.5493 27.792ZM95.0743 35.472L98.2423 42H91.9543L90.3943 37.632H89.1703L88.2823 42H82.8582L85.4983 28.872H90.9223L89.9863 33.48H91.0903L94.9062 28.872H100.762L95.0743 35.472ZM110.539 28.632C111.435 28.632 112.299 28.872 113.131 29.352C113.963 29.832 114.635 30.536 115.147 31.464C115.675 32.376 115.939 33.456 115.939 34.704C115.939 36.112 115.619 37.392 114.979 38.544C114.355 39.696 113.507 40.6 112.435 41.256C111.363 41.912 110.203 42.24 108.955 42.24C107.195 42.24 105.947 41.696 105.211 40.608L103.987 46.656H98.5634L102.115 28.872H107.227L106.987 30.072C107.979 29.112 109.163 28.632 110.539 28.632ZM108.067 37.968C108.771 37.968 109.339 37.696 109.771 37.152C110.219 36.608 110.443 35.88 110.443 34.968C110.443 34.344 110.267 33.848 109.915 33.48C109.579 33.096 109.107 32.904 108.499 32.904C107.795 32.904 107.219 33.176 106.771 33.72C106.339 34.264 106.123 34.992 106.123 35.904C106.123 36.528 106.291 37.032 106.627 37.416C106.979 37.784 107.459 37.968 108.067 37.968ZM133.342 28.872L130.726 42H125.614L125.854 40.8C124.862 41.76 123.678 42.24 122.302 42.24C121.406 42.24 120.542 42 119.71 41.52C118.878 41.04 118.198 40.344 117.67 39.432C117.158 38.504 116.902 37.416 116.902 36.168C116.902 34.76 117.214 33.48 117.838 32.328C118.478 31.176 119.334 30.272 120.406 29.616C121.478 28.96 122.638 28.632 123.886 28.632C125.646 28.632 126.894 29.176 127.63 30.264L127.918 28.872H133.342ZM122.398 35.904C122.398 36.528 122.566 37.032 122.902 37.416C123.254 37.784 123.734 37.968 124.342 37.968C125.046 37.968 125.614 37.696 126.046 37.152C126.494 36.608 126.718 35.88 126.718 34.968C126.718 34.344 126.542 33.848 126.19 33.48C125.854 33.096 125.382 32.904 124.774 32.904C124.07 32.904 123.494 33.176 123.046 33.72C122.614 34.264 122.398 34.992 122.398 35.904ZM157.488 28.872L154.848 42H133.272L135.912 28.872H141.312L139.584 37.752H142.296L144.024 28.872H149.424L147.696 37.752H150.384L152.112 28.872H157.488ZM157.416 37.752L156.072 44.424H151.056L151.536 42H149.376L150.24 37.752H157.416ZM160.756 28.872H166.156L164.884 34.8L170.62 28.872H175.684L173.044 42H167.644L168.916 36.048L163.204 42H158.116L160.756 28.872ZM178.217 28.872H183.617L182.345 34.8L188.081 28.872H193.145L190.505 42H185.105L186.377 36.048L180.665 42H175.577L178.217 28.872ZM185.729 27.792C184.273 27.792 183.193 27.544 182.489 27.048C181.785 26.536 181.433 25.768 181.433 24.744C181.433 24.424 181.473 24.04 181.553 23.592H185.009C184.961 23.784 184.937 23.968 184.937 24.144C184.937 24.832 185.321 25.176 186.089 25.176C186.537 25.176 186.881 25.056 187.121 24.816C187.361 24.56 187.537 24.152 187.649 23.592H191.201C190.929 25.064 190.361 26.136 189.497 26.808C188.633 27.464 187.377 27.792 185.729 27.792ZM41.48 64.232C42.52 64.776 43.04 65.664 43.04 66.896C43.04 68.176 42.504 69.184 41.432 69.92C40.36 70.64 38.848 71 36.896 71H28.952L31.592 57.872H38.768C40.368 57.872 41.608 58.16 42.488 58.736C43.368 59.296 43.808 60.096 43.808 61.136C43.808 61.824 43.608 62.44 43.208 62.984C42.808 63.512 42.232 63.928 41.48 64.232ZM35.288 63.056H37.424C37.84 63.056 38.168 62.96 38.408 62.768C38.648 62.56 38.768 62.296 38.768 61.976C38.768 61.704 38.68 61.496 38.504 61.352C38.328 61.208 38.088 61.136 37.784 61.136H35.672L35.288 63.056ZM36.968 67.64C37.384 67.64 37.712 67.544 37.952 67.352C38.192 67.144 38.312 66.88 38.312 66.56C38.312 66.288 38.224 66.08 38.048 65.936C37.872 65.792 37.632 65.72 37.328 65.72H34.76L34.376 67.64H36.968ZM46.6858 57.872H52.0858L50.8138 63.8L56.5498 57.872H61.6138L58.9738 71H53.5738L54.8458 65.048L49.1338 71H44.0457L46.6858 57.872ZM72.7867 57.92C71.6187 58.096 70.6907 58.384 70.0027 58.784C69.3147 59.168 68.7947 59.736 68.4427 60.488C69.5147 59.88 70.7387 59.576 72.1147 59.576C73.8107 59.576 75.1387 60.016 76.0987 60.896C77.0747 61.776 77.5627 63 77.5627 64.568C77.5627 65.912 77.2187 67.104 76.5307 68.144C75.8587 69.168 74.8987 69.968 73.6507 70.544C72.4027 71.104 70.9547 71.384 69.3067 71.384C67.0827 71.384 65.3707 70.824 64.1707 69.704C62.9707 68.584 62.3707 66.896 62.3707 64.64C62.3707 62.816 62.7387 61.128 63.4747 59.576C64.2267 58.024 65.2907 56.736 66.6667 55.712C68.0587 54.672 69.6827 54 71.5387 53.696L78.4267 52.568L78.3067 57.08L72.7867 57.92ZM71.6587 65.096C71.6587 64.52 71.5067 64.088 71.2027 63.8C70.8987 63.496 70.4827 63.344 69.9547 63.344C69.2667 63.344 68.7227 63.56 68.3227 63.992C67.9227 64.424 67.7227 64.968 67.7227 65.624C67.7227 66.184 67.8827 66.616 68.2027 66.92C68.5227 67.224 68.9547 67.376 69.4987 67.376C70.1707 67.376 70.6987 67.16 71.0827 66.728C71.4667 66.296 71.6587 65.752 71.6587 65.096ZM80.693 57.872H86.093L83.477 71H78.077L80.693 57.872ZM83.981 56.816C83.053 56.816 82.309 56.576 81.749 56.096C81.189 55.6 80.909 54.984 80.909 54.248C80.909 53.4 81.229 52.696 81.869 52.136C82.509 51.576 83.341 51.296 84.365 51.296C85.293 51.296 86.037 51.528 86.597 51.992C87.157 52.44 87.437 53.032 87.437 53.768C87.437 54.68 87.117 55.416 86.477 55.976C85.853 56.536 85.021 56.816 83.981 56.816ZM97.0629 57.632C97.9589 57.632 98.8229 57.872 99.6549 58.352C100.487 58.832 101.159 59.536 101.671 60.464C102.199 61.376 102.463 62.456 102.463 63.704C102.463 65.112 102.143 66.392 101.503 67.544C100.879 68.696 100.031 69.6 98.9589 70.256C97.8869 70.912 96.7269 71.24 95.4789 71.24C93.7189 71.24 92.4709 70.696 91.7349 69.608L90.5109 75.656H85.0869L88.6389 57.872H93.7509L93.5109 59.072C94.5029 58.112 95.6869 57.632 97.0629 57.632ZM94.5909 66.968C95.2949 66.968 95.8629 66.696 96.2949 66.152C96.7429 65.608 96.9669 64.88 96.9669 63.968C96.9669 63.344 96.7909 62.848 96.4389 62.48C96.1029 62.096 95.6309 61.904 95.0229 61.904C94.3189 61.904 93.7429 62.176 93.2949 62.72C92.8629 63.264 92.6469 63.992 92.6469 64.904C92.6469 65.528 92.8149 66.032 93.1509 66.416C93.5029 66.784 93.9829 66.968 94.5909 66.968ZM45.68 86.872L43.04 100H37.64L39.368 91.096H36.08L34.352 100H28.952L31.592 86.872H45.68ZM56.6566 86.632C57.5526 86.632 58.4166 86.872 59.2486 87.352C60.0806 87.832 60.7526 88.536 61.2646 89.464C61.7926 90.376 62.0566 91.456 62.0566 92.704C62.0566 94.112 61.7366 95.392 61.0966 96.544C60.4726 97.696 59.6246 98.6 58.5526 99.256C57.4806 99.912 56.3206 100.24 55.0726 100.24C53.3126 100.24 52.0646 99.696 51.3286 98.608L50.1046 104.656H44.6806L48.2326 86.872H53.3446L53.1046 88.072C54.0966 87.112 55.2806 86.632 56.6566 86.632ZM54.1846 95.968C54.8886 95.968 55.4566 95.696 55.8886 95.152C56.3366 94.608 56.5606 93.88 56.5606 92.968C56.5606 92.344 56.3846 91.848 56.0326 91.48C55.6966 91.096 55.2246 90.904 54.6166 90.904C53.9126 90.904 53.3366 91.176 52.8886 91.72C52.4566 92.264 52.2406 92.992 52.2406 93.904C52.2406 94.528 52.4086 95.032 52.7446 95.416C53.0966 95.784 53.5766 95.968 54.1846 95.968ZM70.0751 100.24C68.6351 100.24 67.3791 99.992 66.3071 99.496C65.2351 98.984 64.4031 98.272 63.8111 97.36C63.2351 96.448 62.9471 95.384 62.9471 94.168C62.9471 92.744 63.2991 91.464 64.0031 90.328C64.7071 89.176 65.6751 88.272 66.9071 87.616C68.1551 86.96 69.5631 86.632 71.1311 86.632C72.5711 86.632 73.8271 86.888 74.8991 87.4C75.9711 87.896 76.7951 88.6 77.3711 89.512C77.9631 90.424 78.2591 91.488 78.2591 92.704C78.2591 94.128 77.9071 95.416 77.2031 96.568C76.4991 97.704 75.5231 98.6 74.2751 99.256C73.0431 99.912 71.6431 100.24 70.0751 100.24ZM70.3871 95.968C71.0911 95.968 71.6591 95.696 72.0911 95.152C72.5391 94.608 72.7631 93.88 72.7631 92.968C72.7631 92.344 72.5871 91.848 72.2351 91.48C71.8991 91.096 71.4271 90.904 70.8191 90.904C70.1151 90.904 69.5391 91.176 69.0911 91.72C68.6591 92.264 68.4431 92.992 68.4431 93.904C68.4431 94.528 68.6111 95.032 68.9471 95.416C69.2991 95.784 69.7791 95.968 70.3871 95.968ZM93.7428 95.752H95.4948L94.1268 102.592H89.1108L89.6148 100H82.3668L81.8628 102.592H76.8468L78.2148 95.752H78.4068C79.8468 95.752 80.9108 94.264 81.5988 91.288L82.6548 86.872H95.5188L93.7428 95.752ZM86.2068 92.632C86.0148 93.48 85.8388 94.136 85.6788 94.6C85.5188 95.048 85.2948 95.432 85.0068 95.752H88.3428L89.2548 91.096H86.5668L86.3268 92.128L86.2068 92.632ZM113.69 86.872L105.626 100.264C104.906 101.464 104.202 102.392 103.514 103.048C102.826 103.72 102.09 104.192 101.306 104.464C100.538 104.752 99.6336 104.896 98.5936 104.896C97.8736 104.896 97.1536 104.792 96.4336 104.584C95.7296 104.376 95.1616 104.104 94.7296 103.768L97.0816 100C97.6896 100.464 98.3456 100.696 99.0496 100.696C99.5776 100.696 100.026 100.512 100.394 100.144L97.5136 86.872H102.914L104.258 93.928L108.386 86.872H113.69ZM124.465 93.472L127.633 100H121.345L119.785 95.632H118.561L117.673 100H112.249L114.889 86.872H120.313L119.377 91.48H120.481L124.297 86.872H130.153L124.465 93.472ZM143.074 91.096H139.018L137.29 100H131.89L133.618 91.096H129.658L130.522 86.872H143.938L143.074 91.096ZM145.474 86.872H150.874L148.258 100H142.858L145.474 86.872ZM148.762 85.816C147.834 85.816 147.09 85.576 146.53 85.096C145.97 84.6 145.69 83.984 145.69 83.248C145.69 82.4 146.01 81.696 146.65 81.136C147.29 80.576 148.122 80.296 149.146 80.296C150.074 80.296 150.818 80.528 151.378 80.992C151.938 81.44 152.218 82.032 152.218 82.768C152.218 83.68 151.898 84.416 151.258 84.976C150.634 85.536 149.802 85.816 148.762 85.816ZM163.308 93.232C164.348 93.776 164.868 94.664 164.868 95.896C164.868 97.176 164.332 98.184 163.26 98.92C162.188 99.64 160.676 100 158.724 100H150.78L153.42 86.872H160.596C162.196 86.872 163.436 87.16 164.316 87.736C165.196 88.296 165.636 89.096 165.636 90.136C165.636 90.824 165.436 91.44 165.036 91.984C164.636 92.512 164.06 92.928 163.308 93.232ZM157.116 92.056H159.252C159.668 92.056 159.996 91.96 160.236 91.768C160.476 91.56 160.596 91.296 160.596 90.976C160.596 90.704 160.508 90.496 160.332 90.352C160.156 90.208 159.916 90.136 159.612 90.136H157.5L157.116 92.056ZM158.796 96.64C159.212 96.64 159.54 96.544 159.78 96.352C160.02 96.144 160.14 95.88 160.14 95.56C160.14 95.288 160.052 95.08 159.876 94.936C159.7 94.792 159.46 94.72 159.156 94.72H156.588L156.204 96.64H158.796Z" fill="white"/>
<defs>
<filter id="filter0_d" x="0" y="0" width="212" height="133" filterUnits="userSpaceOnUse" color-interpolation-filters="sRGB">
<feFlood flood-opacity="0" result="BackgroundImageFix"/>
<feColorMatrix in="SourceAlpha" type="matrix" values="0 0 0 0 0 0 0 0 0 0 0 0 0 0 0 0 0 0 127 0"/>
<feOffset dy="4"/>
<feGaussianBlur stdDeviation="2"/>
<feColorMatrix type="matrix" values="0 0 0 0 0 0 0 0 0 0 0 0 0 0 0 0 0 0 0.25 0"/>
<feBlend mode="normal" in2="BackgroundImageFix" result="effect1_dropShadow"/>
<feBlend mode="normal" in="SourceGraphic" in2="effect1_dropShadow" result="shape"/>
</filter>
</defs>
</svg>
